<svg xmlns="http://www.w3.org/2000/svg" xmlns:xlink="http://www.w3.org/1999/xlink" width="432" zoomAndPan="magnify" viewBox="0 0 324 299.25" height="399" preserveAspectRatio="xMidYMid meet" version="1.0"><path fill="#97be48" d="M 24.175781 74.964844 C 36.414062 90.152344 37.71875 101.230469 36.664062 108.550781 C 35.160156 119 28.789062 121.882812 27.058594 133.488281 C 25.328125 145.09375 29.46875 157.347656 35.710938 165.144531 C 51.257812 184.640625 88.472656 187.222656 108.660156 168.023438 C 123.632812 153.765625 125.964844 130.628906 120.171875 114.289062 C 109.964844 85.542969 70.542969 66.519531 24.175781 74.964844 Z M 24.175781 74.964844 " fill-opacity="1" fill-rule="nonzero"/><path fill="#6f9134" d="M 106.050781 19.25 C 99.332031 40.726562 94.339844 58.648438 90.855469 71.679688 C 86.894531 86.570312 86.042969 89.703125 85.914062 94.464844 C 85.789062 98.75 85.765625 115.96875 106.429688 145.394531 C 117.863281 161.660156 130.378906 178.175781 153.597656 192.261719 C 161.324219 196.949219 179.027344 206.648438 206.613281 211.386719 C 244.128906 217.828125 268.980469 209.832031 270.007812 214.117188 C 270.835938 217.601562 255.0625 225.746094 237.734375 230.484375 C 219.878906 235.371094 203.980469 235.648438 157.613281 230.15625 C 111.820312 224.742188 97.976562 220.882812 75.808594 227.652344 C 65.878906 230.683594 48.574219 236.222656 43.6875 250.710938 C 40.425781 260.410156 43.988281 269.582031 45.039062 272.238281 C 51.636719 288.929688 69.839844 297.652344 72.449219 295.070312 C 75.457031 292.089844 54.894531 275.523438 59.9375 261.9375 C 63.695312 251.761719 79.722656 248.878906 91.054688 246.949219 C 112.925781 243.265625 128.824219 245.949219 153.246094 249.707031 C 211.777344 258.679688 223.964844 259.03125 237.859375 257.527344 C 251.828125 255.996094 265.71875 252.765625 279.6875 245.246094 C 281.617188 244.21875 291.273438 238.953125 301.855469 229.355469 C 309.503906 222.414062 314.644531 217.75 317.753906 210.609375 C 323.421875 197.601562 318.957031 184.140625 317.179688 178.800781 C 305.464844 143.539062 243.351562 118.425781 195.476562 89.625 C 172.457031 75.816406 140.484375 53.734375 106.050781 19.25 Z M 106.050781 19.25 " fill-opacity="1" fill-rule="nonzero"/><path fill="#82ae42" d="M 112.273438 72.433594 C 114.703125 68.648438 119.519531 59.925781 119.167969 48.324219 C 118.667969 32.859375 109.1875 19.550781 97.902344 13.03125 C 88.046875 7.320312 74.832031 8.972656 48.5 12.179688 C 41.65625 13.007812 35.660156 14.613281 23.699219 17.84375 C 13.84375 20.476562 9.378906 22.179688 6.019531 26.515625 C 2.632812 30.878906 1.980469 35.816406 1.707031 37.996094 C 0.855469 44.988281 3.011719 50.476562 4.011719 52.910156 C 8.101562 62.910156 16.777344 69.476562 34.15625 82.183594 C 58.332031 99.851562 64.949219 104.414062 76.085938 106.871094 C 86.917969 109.25 92.8125 107.597656 95.042969 106.871094 C 98.53125 105.71875 108.609375 101.605469 112.574219 90.804688 C 115.65625 82.332031 113.148438 74.789062 112.273438 72.433594 Z M 112.273438 72.433594 " fill-opacity="1" fill-rule="nonzero"/><path fill="#ffffff" d="M 94.917969 28.019531 C 94.917969 28.9375 94.875 29.855469 94.785156 30.765625 C 94.695312 31.679688 94.558594 32.585938 94.378906 33.488281 C 94.199219 34.386719 93.976562 35.277344 93.710938 36.15625 C 93.445312 37.03125 93.136719 37.894531 92.785156 38.742188 C 92.433594 39.59375 92.039062 40.421875 91.609375 41.230469 C 91.175781 42.039062 90.703125 42.824219 90.195312 43.589844 C 89.683594 44.351562 89.136719 45.085938 88.554688 45.796875 C 87.972656 46.507812 87.355469 47.1875 86.707031 47.835938 C 86.058594 48.484375 85.378906 49.097656 84.667969 49.679688 C 83.957031 50.261719 83.222656 50.808594 82.457031 51.320312 C 81.695312 51.828125 80.90625 52.300781 80.097656 52.734375 C 79.289062 53.164062 78.460938 53.558594 77.609375 53.910156 C 76.761719 54.261719 75.898438 54.570312 75.019531 54.835938 C 74.140625 55.101562 73.253906 55.324219 72.351562 55.503906 C 71.449219 55.683594 70.542969 55.816406 69.628906 55.90625 C 68.714844 55.996094 67.800781 56.042969 66.882812 56.042969 C 65.964844 56.042969 65.046875 55.996094 64.132812 55.90625 C 63.21875 55.816406 62.3125 55.683594 61.414062 55.503906 C 60.511719 55.324219 59.621094 55.101562 58.742188 54.835938 C 57.863281 54.570312 57 54.261719 56.152344 53.910156 C 55.304688 53.558594 54.476562 53.164062 53.664062 52.734375 C 52.855469 52.300781 52.070312 51.828125 51.304688 51.320312 C 50.542969 50.808594 49.804688 50.261719 49.097656 49.679688 C 48.386719 49.097656 47.707031 48.484375 47.058594 47.835938 C 46.40625 47.1875 45.792969 46.507812 45.210938 45.796875 C 44.628906 45.085938 44.082031 44.351562 43.570312 43.589844 C 43.0625 42.824219 42.589844 42.039062 42.15625 41.230469 C 41.722656 40.421875 41.332031 39.59375 40.980469 38.742188 C 40.628906 37.894531 40.320312 37.03125 40.054688 36.15625 C 39.785156 35.277344 39.5625 34.386719 39.382812 33.488281 C 39.207031 32.585938 39.070312 31.679688 38.980469 30.765625 C 38.890625 29.855469 38.847656 28.9375 38.847656 28.019531 C 38.847656 27.101562 38.890625 26.1875 38.980469 25.273438 C 39.070312 24.359375 39.207031 23.453125 39.382812 22.554688 C 39.5625 21.652344 39.785156 20.765625 40.054688 19.886719 C 40.320312 19.007812 40.628906 18.144531 40.980469 17.296875 C 41.332031 16.449219 41.722656 15.621094 42.15625 14.8125 C 42.589844 14.003906 43.0625 13.214844 43.570312 12.453125 C 44.082031 11.691406 44.628906 10.953125 45.210938 10.246094 C 45.792969 9.535156 46.40625 8.855469 47.058594 8.207031 C 47.707031 7.558594 48.386719 6.941406 49.097656 6.359375 C 49.804688 5.777344 50.542969 5.230469 51.304688 4.722656 C 52.070312 4.210938 52.855469 3.742188 53.664062 3.308594 C 54.476562 2.875 55.304688 2.484375 56.152344 2.132812 C 57 1.78125 57.863281 1.472656 58.742188 1.207031 C 59.621094 0.941406 60.511719 0.71875 61.414062 0.539062 C 62.3125 0.359375 63.21875 0.226562 64.132812 0.136719 C 65.046875 0.046875 65.964844 0 66.882812 0 C 67.800781 0 68.714844 0.046875 69.628906 0.136719 C 70.542969 0.226562 71.449219 0.359375 72.351562 0.539062 C 73.253906 0.71875 74.140625 0.941406 75.019531 1.207031 C 75.898438 1.472656 76.761719 1.78125 77.609375 2.132812 C 78.460938 2.484375 79.289062 2.875 80.097656 3.308594 C 80.90625 3.742188 81.695312 4.210938 82.457031 4.722656 C 83.222656 5.230469 83.957031 5.777344 84.667969 6.359375 C 85.378906 6.941406 86.058594 7.558594 86.707031 8.207031 C 87.355469 8.855469 87.972656 9.535156 88.554688 10.246094 C 89.136719 10.953125 89.683594 11.691406 90.195312 12.453125 C 90.703125 13.214844 91.175781 14.003906 91.609375 14.8125 C 92.039062 15.621094 92.433594 16.449219 92.785156 17.296875 C 93.136719 18.144531 93.445312 19.007812 93.710938 19.886719 C 93.976562 20.765625 94.199219 21.652344 94.378906 22.554688 C 94.558594 23.453125 94.695312 24.359375 94.785156 25.273438 C 94.875 26.1875 94.917969 27.101562 94.917969 28.019531 Z M 94.917969 28.019531 " fill-opacity="1" fill-rule="nonzero"/><path fill="#000000" d="M 85.867188 28.949219 C 85.390625 39.023438 77.0625 47.019531 66.882812 47.019531 C 56.398438 47.019531 47.875 38.523438 47.875 28.019531 C 47.875 17.519531 56.398438 8.996094 66.882812 8.996094 C 71.695312 8.996094 76.109375 10.800781 79.445312 13.761719 C 74.804688 13.984375 71.144531 17.820312 71.144531 22.507812 C 71.144531 27.371094 75.058594 31.277344 79.921875 31.277344 C 82.230469 31.277344 84.3125 30.402344 85.867188 28.949219 Z M 85.867188 28.949219 " fill-opacity="1" fill-rule="nonzero"/><path fill="#82ae42" d="M 208.34375 168.652344 C 206.410156 171.710938 210.699219 175.195312 214.761719 188.300781 C 217.070312 195.796875 219.675781 204.167969 216.71875 206.496094 C 212.707031 209.65625 203.703125 197.625 193.046875 200.105469 C 184.269531 202.136719 177.449219 213.214844 179.828125 217.953125 C 181.109375 220.484375 184.445312 220.03125 205.359375 220.558594 C 222.109375 220.984375 224.992188 221.410156 228.707031 218.753906 C 234.898438 214.316406 236.277344 206.574219 237.308594 200.53125 C 238.335938 194.46875 240.691406 180.859375 232.039062 172.535156 C 224.492188 165.292969 211.027344 164.417969 208.34375 168.652344 Z M 208.34375 168.652344 " fill-opacity="1" fill-rule="nonzero"/><path fill="#82ae42" d="M 127.117188 149.605469 C 126.238281 153.3125 127.167969 158.625 129.023438 169.128906 C 131.304688 182.011719 132.683594 185.242188 130.902344 186.648438 C 127.042969 189.679688 118.390625 178.125 108.109375 180.480469 C 99.65625 182.4375 93.085938 193.113281 95.371094 197.675781 C 97.023438 200.957031 102.542969 200.007812 119.945312 200.183594 C 147.203125 200.457031 150.664062 202.9375 153.824219 199.378906 C 162.425781 189.78125 143.59375 164.417969 153.824219 154.492188 C 157.410156 151.007812 162.601562 151.332031 164.382812 146.472656 C 165.835938 142.460938 164.007812 137.574219 161.246094 134.691406 C 154.675781 127.847656 142.742188 132.285156 141.613281 132.734375 C 133.9375 135.742188 128.722656 142.761719 127.117188 149.605469 Z M 127.117188 149.605469 " fill-opacity="1" fill-rule="nonzero"/><path fill="#82ae42" d="M 123.082031 43.035156 C 127.769531 42.15625 135.191406 40.703125 144.421875 38.671875 C 151.46875 37.117188 154.453125 36.367188 155.355469 37.644531 C 156.40625 39.148438 154.753906 43.558594 141.335938 57.019531 C 135.269531 52.382812 129.175781 47.722656 123.082031 43.035156 Z M 123.082031 43.035156 " fill-opacity="1" fill-rule="nonzero"/><path fill="#82ae42" d="M 144.847656 59.726562 C 148.734375 59.398438 154.402344 58.875 161.273438 58.023438 C 169.824219 56.96875 173.5625 56.46875 174.339844 58.023438 C 175.191406 59.726562 171.703125 62.207031 166.941406 69.902344 C 165.183594 72.710938 163.90625 75.191406 163.003906 77.070312 C 156.960938 71.28125 150.890625 65.492188 144.847656 59.726562 Z M 144.847656 59.726562 " fill-opacity="1" fill-rule="nonzero"/><path fill="#82ae42" d="M 164.734375 80.753906 C 168.445312 79.625 173.886719 77.898438 180.433594 75.617188 C 188.558594 72.785156 192.09375 71.480469 193.195312 72.835938 C 194.398438 74.3125 191.515625 77.496094 188.480469 86.019531 C 187.378906 89.125 186.652344 91.832031 186.175781 93.835938 C 179.027344 89.476562 171.878906 85.117188 164.734375 80.753906 Z M 164.734375 80.753906 " fill-opacity="1" fill-rule="nonzero"/><path fill="#82ae42" d="M 213.984375 111.40625 C 217.695312 110.277344 223.136719 108.550781 229.683594 106.269531 C 237.808594 103.4375 241.34375 102.132812 242.449219 103.488281 C 243.652344 104.964844 240.765625 108.148438 237.734375 116.671875 C 236.628906 119.777344 235.902344 122.484375 235.425781 124.488281 C 228.277344 120.128906 221.132812 115.769531 213.984375 111.40625 Z M 213.984375 111.40625 " fill-opacity="1" fill-rule="nonzero"/><path fill="#82ae42" d="M 263.335938 143.5625 C 267.046875 142.4375 272.488281 140.707031 279.035156 138.425781 C 287.160156 135.59375 290.695312 134.289062 291.800781 135.644531 C 293.003906 137.121094 290.121094 140.304688 287.085938 148.828125 C 285.980469 151.933594 285.253906 154.640625 284.777344 156.648438 C 277.632812 152.3125 270.484375 147.949219 263.335938 143.5625 Z M 263.335938 143.5625 " fill-opacity="1" fill-rule="nonzero"/><path fill="#82ae42" d="M 288.3125 159.78125 C 292.023438 158.652344 297.46875 156.921875 304.011719 154.640625 C 312.488281 151.683594 315.972656 150.707031 316.777344 151.859375 C 317.703125 153.1875 314.320312 156.246094 309.527344 164.390625 C 307.671875 167.523438 306.34375 170.179688 305.542969 171.886719 C 299.824219 167.875 294.082031 163.839844 288.3125 159.78125 Z M 288.3125 159.78125 " fill-opacity="1" fill-rule="nonzero"/><path fill="#82ae42" d="M 241.144531 128 C 244.855469 126.871094 250.296875 125.140625 256.84375 122.859375 C 265.316406 119.902344 268.804688 118.925781 269.605469 120.078125 C 270.535156 121.40625 267.148438 124.464844 262.359375 132.609375 C 260.503906 135.742188 259.175781 138.398438 258.371094 140.105469 C 252.628906 136.070312 246.886719 132.035156 241.144531 128 Z M 241.144531 128 " fill-opacity="1" fill-rule="nonzero"/><path fill="#82ae42" d="M 191.667969 98.398438 C 194.175781 97.046875 199.390625 94.238281 206.1875 90.554688 C 214.261719 86.167969 217.246094 84.539062 218.273438 85.542969 C 219.375 86.621094 217.320312 89.851562 213.382812 99.175781 C 211.652344 103.285156 210.347656 106.695312 209.546875 108.824219 C 203.601562 105.339844 197.632812 101.859375 191.667969 98.398438 Z M 191.667969 98.398438 " fill-opacity="1" fill-rule="nonzero"/><path fill="#82ae42" d="M 140.785156 90.179688 C 137.199219 91.65625 133.488281 95.242188 134.214844 97.246094 C 134.964844 99.300781 140.15625 98.949219 142.164062 98.648438 C 144.34375 98.324219 147.53125 97.847656 148.757812 95.242188 C 149.460938 93.738281 149.511719 91.53125 148.382812 90.226562 C 146.351562 87.898438 141.738281 89.777344 140.785156 90.179688 Z M 140.785156 90.179688 " fill-opacity="1" fill-rule="nonzero"/><path fill="#82ae42" d="M 135.140625 85.390625 C 133.238281 84.664062 130.628906 86.667969 129.824219 89 C 129.425781 90.152344 129.175781 92.183594 130.152344 92.960938 C 131.480469 94.011719 134.363281 92.285156 135.820312 90.554688 C 136.371094 89.878906 137.097656 88.976562 136.972656 87.796875 C 136.871094 86.71875 136.070312 85.742188 135.140625 85.390625 Z M 135.140625 85.390625 " fill-opacity="1" fill-rule="nonzero"/><path fill="#82ae42" d="M 259.300781 171.960938 C 257.894531 171.609375 256.039062 173.261719 255.460938 175.042969 C 254.660156 177.550781 256.214844 180.734375 257.894531 180.859375 C 259.222656 180.957031 260.503906 179.101562 260.953125 177.648438 C 261.632812 175.417969 260.929688 172.386719 259.300781 171.960938 Z M 259.300781 171.960938 " fill-opacity="1" fill-rule="nonzero"/><path fill="#82ae42" d="M 264.390625 174.316406 C 262.785156 175.09375 262.636719 178.300781 263.335938 180.480469 C 264.464844 183.941406 268.378906 186.621094 270.15625 185.695312 C 271.8125 184.816406 271.761719 180.707031 270.183594 177.949219 C 268.929688 175.746094 266.121094 173.488281 264.390625 174.316406 Z M 264.390625 174.316406 " fill-opacity="1" fill-rule="nonzero"/><path fill="#82ae42" d="M 188.65625 145.015625 C 193.144531 147.847656 201.597656 143.1875 201.421875 140.480469 C 201.296875 138.699219 197.382812 137.5 194.726562 137.347656 C 191.339844 137.171875 186.75 138.550781 186.351562 141.105469 C 186.097656 142.609375 187.402344 144.214844 188.65625 145.015625 Z M 188.65625 145.015625 " fill-opacity="1" fill-rule="nonzero"/><path fill="#82ae42" d="M 200.042969 130.078125 C 197.984375 130.707031 195.601562 132.433594 195.855469 133.839844 C 196.15625 135.492188 200.167969 136.695312 203.226562 135.566406 C 205.15625 134.867188 207.316406 133.035156 206.988281 131.660156 C 206.613281 130.054688 202.902344 129.226562 200.042969 130.078125 Z M 200.042969 130.078125 " fill-opacity="1" fill-rule="nonzero"/><path fill="#82ae42" d="M 208.894531 135.015625 C 205.984375 135.894531 203.226562 138.675781 203.777344 140.128906 C 204.429688 141.859375 209.972656 142.460938 212.53125 139.804688 C 213.582031 138.699219 214.460938 136.695312 213.683594 135.519531 C 212.632812 133.9375 209.246094 134.917969 208.894531 135.015625 Z M 208.894531 135.015625 " fill-opacity="1" fill-rule="nonzero"/><path fill="#97be48" d="M 77.464844 65.238281 C 70.167969 69.601562 67.433594 79.375 70.820312 86.019531 C 75.558594 95.339844 91.457031 96.695312 98.53125 88.898438 C 102.492188 84.5625 103.59375 77.445312 100.835938 71.882812 C 96.875 63.863281 85.640625 60.351562 77.464844 65.238281 Z M 77.464844 65.238281 " fill-opacity="1" fill-rule="nonzero"/><path fill="#97be48" d="M 24.175781 74.964844 C 36.414062 90.152344 37.71875 101.230469 36.664062 108.550781 C 35.160156 119 28.789062 121.882812 27.058594 133.488281 C 25.328125 145.09375 29.46875 157.347656 35.710938 165.144531 C 51.257812 184.640625 88.472656 187.222656 108.660156 168.023438 C 123.632812 153.765625 125.964844 130.628906 120.171875 114.289062 C 109.964844 85.542969 70.542969 66.519531 24.175781 74.964844 Z M 24.175781 74.964844 " fill-opacity="1" fill-rule="nonzero"/><path fill="#6f9134" d="M 106.050781 19.25 C 99.332031 40.726562 94.339844 58.648438 90.855469 71.679688 C 86.894531 86.570312 86.042969 89.703125 85.914062 94.464844 C 85.789062 98.75 85.765625 115.96875 106.429688 145.394531 C 117.863281 161.660156 130.378906 178.175781 153.597656 192.261719 C 161.324219 196.949219 179.027344 206.648438 206.613281 211.386719 C 244.128906 217.828125 268.980469 209.832031 270.007812 214.117188 C 270.835938 217.601562 255.0625 225.746094 237.734375 230.484375 C 219.878906 235.371094 203.980469 235.648438 157.613281 230.15625 C 111.820312 224.742188 97.976562 220.882812 75.808594 227.652344 C 65.878906 230.683594 48.574219 236.222656 43.6875 250.710938 C 40.425781 260.410156 43.988281 269.582031 45.039062 272.238281 C 51.636719 288.929688 69.839844 297.652344 72.449219 295.070312 C 75.457031 292.089844 54.894531 275.523438 59.9375 261.9375 C 63.695312 251.761719 79.722656 248.878906 91.054688 246.949219 C 112.925781 243.265625 128.824219 245.949219 153.246094 249.707031 C 211.777344 258.679688 223.964844 259.03125 237.859375 257.527344 C 251.828125 255.996094 265.71875 252.765625 279.6875 245.246094 C 281.617188 244.21875 291.273438 238.953125 301.855469 229.355469 C 309.503906 222.414062 314.644531 217.75 317.753906 210.609375 C 323.421875 197.601562 318.957031 184.140625 317.179688 178.800781 C 305.464844 143.539062 243.351562 118.425781 195.476562 89.625 C 172.457031 75.816406 140.484375 53.734375 106.050781 19.25 Z M 106.050781 19.25 " fill-opacity="1" fill-rule="nonzero"/><path fill="#82ae42" d="M 112.273438 72.433594 C 114.703125 68.648438 119.519531 59.925781 119.167969 48.324219 C 118.667969 32.859375 109.1875 19.550781 97.902344 13.03125 C 88.046875 7.320312 74.832031 8.972656 48.5 12.179688 C 41.65625 13.007812 35.660156 14.613281 23.699219 17.84375 C 13.84375 20.476562 9.378906 22.179688 6.019531 26.515625 C 2.632812 30.878906 1.980469 35.816406 1.707031 37.996094 C 0.855469 44.988281 3.011719 50.476562 4.011719 52.910156 C 8.101562 62.910156 16.777344 69.476562 34.15625 82.183594 C 58.332031 99.851562 64.949219 104.414062 76.085938 106.871094 C 86.917969 109.25 92.8125 107.597656 95.042969 106.871094 C 98.53125 105.71875 108.609375 101.605469 112.574219 90.804688 C 115.65625 82.332031 113.148438 74.789062 112.273438 72.433594 Z M 112.273438 72.433594 " fill-opacity="1" fill-rule="nonzero"/><path fill="#ffffff" d="M 94.917969 28.019531 C 94.917969 28.9375 94.875 29.855469 94.785156 30.765625 C 94.695312 31.679688 94.558594 32.585938 94.378906 33.488281 C 94.199219 34.386719 93.976562 35.277344 93.710938 36.15625 C 93.445312 37.03125 93.136719 37.894531 92.785156 38.742188 C 92.433594 39.59375 92.039062 40.421875 91.609375 41.230469 C 91.175781 42.039062 90.703125 42.824219 90.195312 43.589844 C 89.683594 44.351562 89.136719 45.085938 88.554688 45.796875 C 87.972656 46.507812 87.355469 47.1875 86.707031 47.835938 C 86.058594 48.484375 85.378906 49.097656 84.667969 49.679688 C 83.957031 50.261719 83.222656 50.808594 82.457031 51.320312 C 81.695312 51.828125 80.90625 52.300781 80.097656 52.734375 C 79.289062 53.164062 78.460938 53.558594 77.609375 53.910156 C 76.761719 54.261719 75.898438 54.570312 75.019531 54.835938 C 74.140625 55.101562 73.253906 55.324219 72.351562 55.503906 C 71.449219 55.683594 70.542969 55.816406 69.628906 55.90625 C 68.714844 55.996094 67.800781 56.042969 66.882812 56.042969 C 65.964844 56.042969 65.046875 55.996094 64.132812 55.90625 C 63.21875 55.816406 62.3125 55.683594 61.414062 55.503906 C 60.511719 55.324219 59.621094 55.101562 58.742188 54.835938 C 57.863281 54.570312 57 54.261719 56.152344 53.910156 C 55.304688 53.558594 54.476562 53.164062 53.664062 52.734375 C 52.855469 52.300781 52.070312 51.828125 51.304688 51.320312 C 50.542969 50.808594 49.804688 50.261719 49.097656 49.679688 C 48.386719 49.097656 47.707031 48.484375 47.058594 47.835938 C 46.40625 47.1875 45.792969 46.507812 45.210938 45.796875 C 44.628906 45.085938 44.082031 44.351562 43.570312 43.589844 C 43.0625 42.824219 42.589844 42.039062 42.15625 41.230469 C 41.722656 40.421875 41.332031 39.59375 40.980469 38.742188 C 40.628906 37.894531 40.320312 37.03125 40.054688 36.15625 C 39.785156 35.277344 39.5625 34.386719 39.382812 33.488281 C 39.207031 32.585938 39.070312 31.679688 38.980469 30.765625 C 38.890625 29.855469 38.847656 28.9375 38.847656 28.019531 C 38.847656 27.101562 38.890625 26.1875 38.980469 25.273438 C 39.070312 24.359375 39.207031 23.453125 39.382812 22.554688 C 39.5625 21.652344 39.785156 20.765625 40.054688 19.886719 C 40.320312 19.007812 40.628906 18.144531 40.980469 17.296875 C 41.332031 16.449219 41.722656 15.621094 42.15625 14.8125 C 42.589844 14.003906 43.0625 13.214844 43.570312 12.453125 C 44.082031 11.691406 44.628906 10.953125 45.210938 10.246094 C 45.792969 9.535156 46.40625 8.855469 47.058594 8.207031 C 47.707031 7.558594 48.386719 6.941406 49.097656 6.359375 C 49.804688 5.777344 50.542969 5.230469 51.304688 4.722656 C 52.070312 4.210938 52.855469 3.742188 53.664062 3.308594 C 54.476562 2.875 55.304688 2.484375 56.152344 2.132812 C 57 1.78125 57.863281 1.472656 58.742188 1.207031 C 59.621094 0.941406 60.511719 0.71875 61.414062 0.539062 C 62.3125 0.359375 63.21875 0.226562 64.132812 0.136719 C 65.046875 0.046875 65.964844 0 66.882812 0 C 67.800781 0 68.714844 0.046875 69.628906 0.136719 C 70.542969 0.226562 71.449219 0.359375 72.351562 0.539062 C 73.253906 0.71875 74.140625 0.941406 75.019531 1.207031 C 75.898438 1.472656 76.761719 1.78125 77.609375 2.132812 C 78.460938 2.484375 79.289062 2.875 80.097656 3.308594 C 80.90625 3.742188 81.695312 4.210938 82.457031 4.722656 C 83.222656 5.230469 83.957031 5.777344 84.667969 6.359375 C 85.378906 6.941406 86.058594 7.558594 86.707031 8.207031 C 87.355469 8.855469 87.972656 9.535156 88.554688 10.246094 C 89.136719 10.953125 89.683594 11.691406 90.195312 12.453125 C 90.703125 13.214844 91.175781 14.003906 91.609375 14.8125 C 92.039062 15.621094 92.433594 16.449219 92.785156 17.296875 C 93.136719 18.144531 93.445312 19.007812 93.710938 19.886719 C 93.976562 20.765625 94.199219 21.652344 94.378906 22.554688 C 94.558594 23.453125 94.695312 24.359375 94.785156 25.273438 C 94.875 26.1875 94.917969 27.101562 94.917969 28.019531 Z M 94.917969 28.019531 " fill-opacity="1" fill-rule="nonzero"/><path fill="#000000" d="M 85.867188 28.949219 C 85.390625 39.023438 77.0625 47.019531 66.882812 47.019531 C 56.398438 47.019531 47.875 38.523438 47.875 28.019531 C 47.875 17.519531 56.398438 8.996094 66.882812 8.996094 C 71.695312 8.996094 76.109375 10.800781 79.445312 13.761719 C 74.804688 13.984375 71.144531 17.820312 71.144531 22.507812 C 71.144531 27.371094 75.058594 31.277344 79.921875 31.277344 C 82.230469 31.277344 84.3125 30.402344 85.867188 28.949219 Z M 85.867188 28.949219 " fill-opacity="1" fill-rule="nonzero"/><path fill="#82ae42" d="M 208.34375 168.652344 C 206.410156 171.710938 210.699219 175.195312 214.761719 188.300781 C 217.070312 195.796875 219.675781 204.167969 216.71875 206.496094 C 212.707031 209.65625 203.703125 197.625 193.046875 200.105469 C 184.269531 202.136719 177.449219 213.214844 179.828125 217.953125 C 181.109375 220.484375 184.445312 220.03125 205.359375 220.558594 C 222.109375 220.984375 224.992188 221.410156 228.707031 218.753906 C 234.898438 214.316406 236.277344 206.574219 237.308594 200.53125 C 238.335938 194.46875 240.691406 180.859375 232.039062 172.535156 C 224.492188 165.292969 211.027344 164.417969 208.34375 168.652344 Z M 208.34375 168.652344 " fill-opacity="1" fill-rule="nonzero"/><path fill="#82ae42" d="M 127.117188 149.605469 C 126.238281 153.3125 127.167969 158.625 129.023438 169.128906 C 131.304688 182.011719 132.683594 185.242188 130.902344 186.648438 C 127.042969 189.679688 118.390625 178.125 108.109375 180.480469 C 99.65625 182.4375 93.085938 193.113281 95.371094 197.675781 C 97.023438 200.957031 102.542969 200.007812 119.945312 200.183594 C 147.203125 200.457031 150.664062 202.9375 153.824219 199.378906 C 162.425781 189.78125 143.59375 164.417969 153.824219 154.492188 C 157.410156 151.007812 162.601562 151.332031 164.382812 146.472656 C 165.835938 142.460938 164.007812 137.574219 161.246094 134.691406 C 154.675781 127.847656 142.742188 132.285156 141.613281 132.734375 C 133.9375 135.742188 128.722656 142.761719 127.117188 149.605469 Z M 127.117188 149.605469 " fill-opacity="1" fill-rule="nonzero"/><path fill="#82ae42" d="M 123.082031 43.035156 C 127.769531 42.15625 135.191406 40.703125 144.421875 38.671875 C 151.46875 37.117188 154.453125 36.367188 155.355469 37.644531 C 156.40625 39.148438 154.753906 43.558594 141.335938 57.019531 C 135.269531 52.382812 129.175781 47.722656 123.082031 43.035156 Z M 123.082031 43.035156 " fill-opacity="1" fill-rule="nonzero"/><path fill="#82ae42" d="M 144.847656 59.726562 C 148.734375 59.398438 154.402344 58.875 161.273438 58.023438 C 169.824219 56.96875 173.5625 56.46875 174.339844 58.023438 C 175.191406 59.726562 171.703125 62.207031 166.941406 69.902344 C 165.183594 72.710938 163.90625 75.191406 163.003906 77.070312 C 156.960938 71.28125 150.890625 65.492188 144.847656 59.726562 Z M 144.847656 59.726562 " fill-opacity="1" fill-rule="nonzero"/><path fill="#82ae42" d="M 164.734375 80.753906 C 168.445312 79.625 173.886719 77.898438 180.433594 75.617188 C 188.558594 72.785156 192.09375 71.480469 193.195312 72.835938 C 194.398438 74.3125 191.515625 77.496094 188.480469 86.019531 C 187.378906 89.125 186.652344 91.832031 186.175781 93.835938 C 179.027344 89.476562 171.878906 85.117188 164.734375 80.753906 Z M 164.734375 80.753906 " fill-opacity="1" fill-rule="nonzero"/><path fill="#82ae42" d="M 213.984375 111.40625 C 217.695312 110.277344 223.136719 108.550781 229.683594 106.269531 C 237.808594 103.4375 241.34375 102.132812 242.449219 103.488281 C 243.652344 104.964844 240.765625 108.148438 237.734375 116.671875 C 236.628906 119.777344 235.902344 122.484375 235.425781 124.488281 C 228.277344 120.128906 221.132812 115.769531 213.984375 111.40625 Z M 213.984375 111.40625 " fill-opacity="1" fill-rule="nonzero"/><path fill="#82ae42" d="M 263.335938 143.5625 C 267.046875 142.4375 272.488281 140.707031 279.035156 138.425781 C 287.160156 135.59375 290.695312 134.289062 291.800781 135.644531 C 293.003906 137.121094 290.121094 140.304688 287.085938 148.828125 C 285.980469 151.933594 285.253906 154.640625 284.777344 156.648438 C 277.632812 152.3125 270.484375 147.949219 263.335938 143.5625 Z M 263.335938 143.5625 " fill-opacity="1" fill-rule="nonzero"/><path fill="#82ae42" d="M 288.3125 159.78125 C 292.023438 158.652344 297.46875 156.921875 304.011719 154.640625 C 312.488281 151.683594 315.972656 150.707031 316.777344 151.859375 C 317.703125 153.1875 314.320312 156.246094 309.527344 164.390625 C 307.671875 167.523438 306.34375 170.179688 305.542969 171.886719 C 299.824219 167.875 294.082031 163.839844 288.3125 159.78125 Z M 288.3125 159.78125 " fill-opacity="1" fill-rule="nonzero"/><path fill="#82ae42" d="M 241.144531 128 C 244.855469 126.871094 250.296875 125.140625 256.84375 122.859375 C 265.316406 119.902344 268.804688 118.925781 269.605469 120.078125 C 270.535156 121.40625 267.148438 124.464844 262.359375 132.609375 C 260.503906 135.742188 259.175781 138.398438 258.371094 140.105469 C 252.628906 136.070312 246.886719 132.035156 241.144531 128 Z M 241.144531 128 " fill-opacity="1" fill-rule="nonzero"/><path fill="#82ae42" d="M 191.667969 98.398438 C 194.175781 97.046875 199.390625 94.238281 206.1875 90.554688 C 214.261719 86.167969 217.246094 84.539062 218.273438 85.542969 C 219.375 86.621094 217.320312 89.851562 213.382812 99.175781 C 211.652344 103.285156 210.347656 106.695312 209.546875 108.824219 C 203.601562 105.339844 197.632812 101.859375 191.667969 98.398438 Z M 191.667969 98.398438 " fill-opacity="1" fill-rule="nonzero"/><path fill="#82ae42" d="M 140.785156 90.179688 C 137.199219 91.65625 133.488281 95.242188 134.214844 97.246094 C 134.964844 99.300781 140.15625 98.949219 142.164062 98.648438 C 144.34375 98.324219 147.53125 97.847656 148.757812 95.242188 C 149.460938 93.738281 149.511719 91.53125 148.382812 90.226562 C 146.351562 87.898438 141.738281 89.777344 140.785156 90.179688 Z M 140.785156 90.179688 " fill-opacity="1" fill-rule="nonzero"/><path fill="#82ae42" d="M 135.140625 85.390625 C 133.238281 84.664062 130.628906 86.667969 129.824219 89 C 129.425781 90.152344 129.175781 92.183594 130.152344 92.960938 C 131.480469 94.011719 134.363281 92.285156 135.820312 90.554688 C 136.371094 89.878906 137.097656 88.976562 136.972656 87.796875 C 136.871094 86.71875 136.070312 85.742188 135.140625 85.390625 Z M 135.140625 85.390625 " fill-opacity="1" fill-rule="nonzero"/><path fill="#82ae42" d="M 259.300781 171.960938 C 257.894531 171.609375 256.039062 173.261719 255.460938 175.042969 C 254.660156 177.550781 256.214844 180.734375 257.894531 180.859375 C 259.222656 180.957031 260.503906 179.101562 260.953125 177.648438 C 261.632812 175.417969 260.929688 172.386719 259.300781 171.960938 Z M 259.300781 171.960938 " fill-opacity="1" fill-rule="nonzero"/><path fill="#82ae42" d="M 264.390625 174.316406 C 262.785156 175.09375 262.636719 178.300781 263.335938 180.480469 C 264.464844 183.941406 268.378906 186.621094 270.15625 185.695312 C 271.8125 184.816406 271.761719 180.707031 270.183594 177.949219 C 268.929688 175.746094 266.121094 173.488281 264.390625 174.316406 Z M 264.390625 174.316406 " fill-opacity="1" fill-rule="nonzero"/><path fill="#82ae42" d="M 188.65625 145.015625 C 193.144531 147.847656 201.597656 143.1875 201.421875 140.480469 C 201.296875 138.699219 197.382812 137.5 194.726562 137.347656 C 191.339844 137.171875 186.75 138.550781 186.351562 141.105469 C 186.097656 142.609375 187.402344 144.214844 188.65625 145.015625 Z M 188.65625 145.015625 " fill-opacity="1" fill-rule="nonzero"/><path fill="#82ae42" d="M 200.042969 130.078125 C 197.984375 130.707031 195.601562 132.433594 195.855469 133.839844 C 196.15625 135.492188 200.167969 136.695312 203.226562 135.566406 C 205.15625 134.867188 207.316406 133.035156 206.988281 131.660156 C 206.613281 130.054688 202.902344 129.226562 200.042969 130.078125 Z M 200.042969 130.078125 " fill-opacity="1" fill-rule="nonzero"/><path fill="#82ae42" d="M 208.894531 135.015625 C 205.984375 135.894531 203.226562 138.675781 203.777344 140.128906 C 204.429688 141.859375 209.972656 142.460938 212.53125 139.804688 C 213.582031 138.699219 214.460938 136.695312 213.683594 135.519531 C 212.632812 133.9375 209.246094 134.917969 208.894531 135.015625 Z M 208.894531 135.015625 " fill-opacity="1" fill-rule="nonzero"/><path fill="#97be48" d="M 77.464844 65.238281 C 70.167969 69.601562 67.433594 79.375 70.820312 86.019531 C 75.558594 95.339844 91.457031 96.695312 98.53125 88.898438 C 102.492188 84.5625 103.59375 77.445312 100.835938 71.882812 C 96.875 63.863281 85.640625 60.351562 77.464844 65.238281 Z M 77.464844 65.238281 " fill-opacity="1" fill-rule="nonzero"/></svg>